<svg width="18" height="15" viewBox="0 0 18 15" fill="none" xmlns="http://www.w3.org/2000/svg">
<path d="M0.219377 6.96993L6.96938 0.219934C7.11011 0.0792035 7.30098 0.000142038 7.5 0.000142038C7.69902 0.000142038 7.8899 0.0792035 8.03063 0.219934C8.17136 0.360665 8.25042 0.551536 8.25042 0.75056C8.25042 0.949583 8.17136 1.14045 8.03063 1.28119L2.56031 6.75056H17.25C17.4489 6.75056 17.6397 6.82958 17.7803 6.97023C17.921 7.11088 18 7.30165 18 7.50056C18 7.69947 17.921 7.89024 17.7803 8.03089C17.6397 8.17154 17.4489 8.25056 17.25 8.25056H2.56031L8.03063 13.7199C8.17136 13.8607 8.25042 14.0515 8.25042 14.2506C8.25042 14.4496 8.17136 14.6405 8.03063 14.7812C7.8899 14.9219 7.69902 15.001 7.5 15.001C7.30098 15.001 7.11011 14.9219 6.96938 14.7812L0.219377 8.03119C0.149644 7.96153 0.0943233 7.87881 0.0565807 7.78776C0.018838 7.69672 -0.000588298 7.59912 -0.000588298 7.50056C-0.000588298 7.402 0.018838 7.3044 0.0565807 7.21335C0.0943233 7.12231 0.149644 7.03959 0.219377 6.96993Z" fill="#626262"/>
</svg>
