<svg width="29" height="29" viewBox="0 0 29 29" fill="none" xmlns="http://www.w3.org/2000/svg">
<path d="M10.7678 18.5052C9.77807 17.5604 8.63148 16.7905 7.32799 16.1994C6.05191 15.6196 4.6974 15.2246 3.31926 14.981C2.42786 14.8247 1.55017 14.721 0.684938 14.676C0.515624 14.666 0.346309 14.666 0.179497 14.676C-0.0483297 14.6885 -0.0732306 14.3586 0.185721 14.3398C0.401099 14.3261 0.628919 14.3098 0.866708 14.2936C1.54521 14.2449 2.25236 14.1586 2.9881 14.0299C5.58507 13.5813 8.11359 12.594 10.1068 10.8506C11.7439 9.41964 12.903 7.54636 13.5317 5.46553C13.9201 4.1733 14.1379 2.84735 14.1828 1.48272C14.1878 1.314 14.189 0.882846 14.1853 0.184246C14.1853 -0.051952 14.5376 -0.0707 14.5388 0.184246C14.5438 0.852837 14.5264 1.32275 14.5662 1.91638C14.6559 3.27858 14.8974 4.6108 15.3356 5.89568C15.927 7.63155 16.9093 9.22999 18.2326 10.4947C19.2224 11.4407 20.369 12.2093 21.6725 12.8017C22.9473 13.3815 24.3018 13.7752 25.6812 14.0201C26.5726 14.1764 27.4503 14.2788 28.3155 14.3251C28.4848 14.3351 28.6541 14.3338 28.821 14.3251C29.0475 14.3113 29.0737 14.6438 28.8147 14.66C28.5969 14.675 28.3715 14.6913 28.1337 14.7088C27.4552 14.7562 26.7481 14.8437 26.0124 14.9699C23.4154 15.4198 20.8869 16.4084 18.8937 18.1505C17.2565 19.5802 16.0975 21.4547 15.4688 23.5369C15.0804 24.8266 14.8625 26.1538 14.8177 27.5184C14.8127 27.6859 14.8115 28.1183 14.8152 28.8169C14.8152 29.0518 14.4629 29.0706 14.4616 28.8156C14.4566 28.1483 14.4741 27.6784 14.4342 27.0835C14.3446 25.7213 14.1006 24.3915 13.6648 23.1067C13.0735 21.3696 12.0912 19.7699 10.7678 18.5052Z" fill="white"/>
</svg>
