<svg width="16" height="16" viewBox="0 0 16 16" fill="none" xmlns="http://www.w3.org/2000/svg">
<path d="M14.6693 4.75977V11.4264C14.6693 11.8685 14.4937 12.2924 14.1811 12.6049C13.8686 12.9175 13.4446 13.0931 13.0026 13.0931H3.0026C2.56058 13.0931 2.13665 12.9175 1.82409 12.6049C1.51153 12.2924 1.33594 11.8685 1.33594 11.4264V4.75977" stroke="#626262" stroke-linecap="round" stroke-linejoin="round"/>
<path d="M14.6693 4.75944C14.6693 4.31741 14.4937 3.89349 14.1811 3.58093C13.8686 3.26837 13.4446 3.09277 13.0026 3.09277H3.0026C2.56058 3.09277 2.13665 3.26837 1.82409 3.58093C1.51153 3.89349 1.33594 4.31741 1.33594 4.75944L7.11927 8.37055C7.38416 8.53611 7.69024 8.62389 8.0026 8.62389C8.31497 8.62389 8.62105 8.53611 8.88594 8.37055L14.6693 4.75944Z" stroke="#626262" stroke-linecap="round" stroke-linejoin="round"/>
</svg>
