<svg width="30" height="30" viewBox="0 0 30 30" fill="none" xmlns="http://www.w3.org/2000/svg">
<path d="M22.2894 6.77045H10.3569C10.1082 6.77045 9.86957 6.86928 9.69366 7.04519C9.51775 7.22111 9.41892 7.4597 9.41892 7.70848C9.41892 7.95726 9.51775 8.19585 9.69366 8.37176C9.86958 8.54767 10.1082 8.6465 10.3569 8.6465L20.0264 8.64567L7.04238 21.6296C6.86657 21.8055 6.76779 22.0439 6.76779 22.2926C6.76779 22.5412 6.86657 22.7797 7.04238 22.9555C7.2182 23.1313 7.45665 23.2301 7.70529 23.2301C7.95393 23.2301 8.19239 23.1313 8.36821 22.9555L21.3522 9.97149L21.3513 19.6409C21.3513 19.8897 21.4502 20.1283 21.6261 20.3042C21.802 20.4801 22.0406 20.5789 22.2894 20.5789C22.5381 20.5789 22.7767 20.4801 22.9527 20.3042C23.1286 20.1283 23.2274 19.8897 23.2274 19.6409L23.2274 7.70848C23.2275 7.58528 23.2032 7.46327 23.1561 7.34943C23.109 7.23559 23.0399 7.13216 22.9528 7.04504C22.8657 6.95793 22.7623 6.88883 22.6484 6.84172C22.5346 6.7946 22.4126 6.77039 22.2894 6.77045Z" fill="#1F69FF" stroke="#E5F6FE" stroke-width="0.1"/>
</svg>
