<svg width="16" height="16" viewBox="0 0 16 16" fill="none" xmlns="http://www.w3.org/2000/svg">
<path d="M7.99505 0C10.1159 0.000760311 12.1065 0.826459 13.6031 2.32503C15.1002 3.82361 15.924 5.81564 15.9232 7.93423C15.9217 12.3056 12.3646 15.8624 7.99505 15.8624H7.99164C6.66488 15.862 5.36095 15.5294 4.203 14.8975L0 16L1.12488 11.8913C0.431097 10.6892 0.0657669 9.32521 0.0665272 7.92777C0.0680479 3.55636 3.62479 0 7.99505 0Z" fill="#1F69FF"/>
<path d="M10.2584 8.94426C10.4402 9.01039 11.4141 9.48941 11.6122 9.58862L11.6118 9.58937C11.8099 9.68858 11.9422 9.73839 11.9916 9.82088C12.041 9.90337 12.041 10.3003 11.876 10.7629C11.711 11.2256 10.9195 11.6479 10.539 11.7049C10.1976 11.7559 9.76577 11.7772 9.2913 11.6263C9.00353 11.535 8.63442 11.413 8.16186 11.2089C6.17477 10.3505 4.87694 8.34971 4.77773 8.21741L4.77651 8.21578C4.67284 8.07756 3.96875 7.13878 3.96875 6.16796C3.96875 5.19324 4.48046 4.71386 4.66216 4.51544C4.84386 4.317 5.05829 4.26758 5.19059 4.26758C5.32288 4.26758 5.45478 4.26871 5.57036 4.27442C5.69164 4.28088 5.85507 4.22842 6.0159 4.61465C6.18128 5.01114 6.57737 5.98626 6.62682 6.08547C6.67622 6.18472 6.70931 6.30026 6.64314 6.43255C6.57701 6.56449 6.54433 6.64734 6.44507 6.76291C6.34586 6.87849 6.23674 7.02105 6.14779 7.11C6.04898 7.20845 5.94557 7.31567 6.06115 7.51409C6.17668 7.71256 6.57436 8.36107 7.16321 8.88645C7.92009 9.56124 8.55839 9.77032 8.75641 9.86953C8.95448 9.96879 9.07006 9.95242 9.18563 9.82013C9.30121 9.68823 9.68098 9.24194 9.81288 9.04347C9.94482 8.84505 10.0767 8.87809 10.2584 8.94426Z" fill="white"/>
</svg>
