<svg width="13" height="13" viewBox="0 0 13 13" fill="none" xmlns="http://www.w3.org/2000/svg">
<path d="M6.40039 12.3999C9.19544 12.3999 11.5441 10.4887 12.2109 7.90187M6.40039 12.3999C3.60534 12.3999 1.25667 10.4887 0.589923 7.90187M6.40039 12.3999C8.05724 12.3999 9.40039 9.71361 9.40039 6.3999C9.40039 3.08619 8.05724 0.399902 6.40039 0.399902M6.40039 12.3999C4.74354 12.3999 3.40039 9.71361 3.40039 6.3999C3.40039 3.08619 4.74354 0.399902 6.40039 0.399902M6.40039 0.399902C8.64385 0.399902 10.5997 1.6312 11.6291 3.45487M6.40039 0.399902C4.15693 0.399902 2.20105 1.6312 1.17167 3.45487M11.6291 3.45487C10.2269 4.66683 8.39924 5.3999 6.40039 5.3999C4.40154 5.3999 2.5739 4.66683 1.17167 3.45487M11.6291 3.45487C12.1202 4.32485 12.4004 5.32965 12.4004 6.3999C12.4004 6.91856 12.3346 7.42185 12.2109 7.90187M12.2109 7.90187C10.4893 8.85639 8.50832 9.3999 6.40039 9.3999C4.29246 9.3999 2.31147 8.85639 0.589923 7.90187M0.589923 7.90187C0.466199 7.42185 0.400391 6.91856 0.400391 6.3999C0.400391 5.32965 0.680607 4.32485 1.17167 3.45487" stroke="#FEFEFD" stroke-width="0.8" stroke-linecap="round" stroke-linejoin="round"/>
</svg>
