<svg width="12" height="14" viewBox="0 0 12 14" fill="none" xmlns="http://www.w3.org/2000/svg">
<path d="M11.0806 6.12093C11.0806 10.2685 6.83248 12.8237 5.94966 13.3104C5.90075 13.3374 5.84581 13.3516 5.78996 13.3516C5.73411 13.3516 5.67916 13.3374 5.63026 13.3104C4.74678 12.8237 0.5 10.2685 0.5 6.12093C0.5 2.8145 2.48386 0.5 5.79029 0.5C9.09672 0.5 11.0806 2.8145 11.0806 6.12093Z" stroke="#626262" stroke-linecap="round" stroke-linejoin="round"/>
<path d="M3.38281 5.86854C3.38281 6.5063 3.63616 7.11794 4.08713 7.56891C4.53809 8.01987 5.14973 8.27322 5.78749 8.27322C6.42525 8.27322 7.03689 8.01987 7.48785 7.56891C7.93882 7.11794 8.19217 6.5063 8.19217 5.86854C8.19217 5.23078 7.93882 4.61915 7.48785 4.16818C7.03689 3.71722 6.42525 3.46387 5.78749 3.46387C5.14973 3.46387 4.53809 3.71722 4.08713 4.16818C3.63616 4.61915 3.38281 5.23078 3.38281 5.86854V5.86854Z" stroke="#626262" stroke-linecap="round" stroke-linejoin="round"/>
</svg>
