<svg width="27" height="25" viewBox="0 0 27 25" fill="none" xmlns="http://www.w3.org/2000/svg">
<path d="M16.801 18.0745L11.4605 22.7501C9.9542 24.0688 8.05421 24.8133 6.17845 24.8198C4.30268 24.8263 2.6048 24.0942 1.45832 22.7847C0.311842 21.4752 -0.189321 19.6954 0.0650784 17.837C0.319476 15.9785 1.3086 14.1936 2.81485 12.8749L8.15542 8.19931L16.801 18.0745ZM18.4616 16.6206L23.8022 11.945C25.3085 10.6263 26.2976 8.84141 26.552 6.98297C26.8064 5.12452 26.3052 3.34477 25.1587 2.03524C24.0123 0.725715 22.3144 -0.00632436 20.4386 0.000165347C18.5629 0.00665498 16.6629 0.751142 15.1566 2.06985L9.81604 6.74546L18.4616 16.6206Z" fill="white"/>
</svg>
