<svg width="15" height="15" viewBox="0 0 15 15" fill="none" xmlns="http://www.w3.org/2000/svg">
<path d="M8.96793 13.3151L8.97522 13.3202C9.60485 13.7211 10.3524 13.8952 11.0944 13.8137C11.8364 13.7322 12.5283 13.4001 13.056 12.8721L13.5143 12.4137C13.6159 12.3122 13.6965 12.1917 13.7514 12.059C13.8064 11.9264 13.8347 11.7842 13.8347 11.6406C13.8347 11.497 13.8064 11.3548 13.7514 11.2221C13.6965 11.0894 13.6159 10.9689 13.5143 10.8674L11.5811 8.93561C11.4796 8.83404 11.359 8.75346 11.2264 8.69848C11.0937 8.64351 10.9515 8.61521 10.8079 8.61521C10.6643 8.61521 10.5221 8.64351 10.3895 8.69848C10.2568 8.75346 10.1363 8.83404 10.0348 8.93561C9.82977 9.14053 9.5518 9.25564 9.26196 9.25564C8.97212 9.25564 8.69415 9.14053 8.48917 8.93561L5.39801 5.84372C5.19309 5.63874 5.07798 5.36077 5.07798 5.07093C5.07798 4.78109 5.19309 4.50311 5.39801 4.29814C5.49958 4.19663 5.58016 4.0761 5.63513 3.94344C5.69011 3.81078 5.7184 3.66858 5.7184 3.52498C5.7184 3.38138 5.69011 3.23919 5.63513 3.10653C5.58016 2.97386 5.49958 2.85334 5.39801 2.75183L3.46548 0.820032C3.26051 0.615116 2.98253 0.5 2.69269 0.5C2.40285 0.5 2.12488 0.615116 1.9199 0.820032L1.46082 1.27839C0.93294 1.8061 0.600891 2.49811 0.51954 3.24008C0.438188 3.98205 0.612402 4.72957 1.0134 5.35913L1.01777 5.36642C3.13551 8.49969 5.83427 11.1979 8.96793 13.3151V13.3151Z" stroke="#626262" stroke-linecap="round" stroke-linejoin="round"/>
</svg>
