<svg width="35" height="35" viewBox="0 0 35 35" fill="none" xmlns="http://www.w3.org/2000/svg">
<path fill-rule="evenodd" clip-rule="evenodd" d="M34.8113 21.9898C34.81 21.9945 34.8088 21.9993 34.8075 22.004C34.8063 22.0088 34.805 22.0135 34.8038 22.0183C25.2704 19.8973 15.6852 25.4771 12.822 34.8144C12.8172 34.8131 12.8125 34.8119 12.8077 34.8106C12.803 34.8094 12.7983 34.8081 12.7935 34.8069C14.9144 25.2735 9.33465 15.6883 -0.00262171 12.8251C-0.00136847 12.8203 -0.000115235 12.8156 0.00113849 12.8108C0.00239222 12.8061 0.00364545 12.8013 0.00489918 12.7966C9.53824 14.9175 19.1234 9.33775 21.9867 0.000476906C21.9914 0.00173063 21.9962 0.00298387 22.0009 0.0042376C22.0057 0.00549132 22.0104 0.00674505 22.0152 0.00799877C19.8942 9.54134 25.474 19.1265 34.8113 21.9898Z" fill="url(#paint0_linear_3968_25084)"/>
<defs>
<linearGradient id="paint0_linear_3968_25084" x1="12.8077" y1="34.8106" x2="9.85165" y2="1.62202" gradientUnits="userSpaceOnUse">
<stop stop-color="#A4DDF8"/>
<stop offset="1" stop-color="#1F69FF"/>
</linearGradient>
</defs>
</svg>
